
<svg width="75px" height="31px" viewBox="0 0 75 31" version="1.1" xmlns="http://www.w3.org/2000/svg" xmlns:xlink="http://www.w3.org/1999/xlink">
    <!-- Generator: Sketch 46.2 (44496) - http://www.bohemiancoding.com/sketch -->
    <desc>Created with Sketch.</desc>
    <defs></defs>
    <g id="Page-1" stroke="none" stroke-width="1" fill="none" fill-rule="evenodd">
        <g id="catalog" transform="translate(-1245.000000, -29.000000)" fill-rule="nonzero">
            <g id="header">
                <g id="header__top">
                    <g id="top__cart" transform="translate(1245.000000, 29.000000)">
                        <path d="M18.1,0.5 C14.9,1.1 12.5,4.4 11.5,8.9 C8,8.9 4.5,8.9 0.9,8.9 C1.3,13.7 2.5,19.6 5.6,25.8 C6.4,27.3 7.2,28.7 8,30 L30,30 C30.8,28.7 31.6,27.3 32.3,25.8 C35.4,19.6 36.6,13.7 37,8.9 C33.5,8.9 30,8.9 26.4,8.9 C25.6,4.4 23.2,1.1 20,0.5 C19.8,0.4 19,0.3 18.1,0.5 Z" id="Shape" fill="#FE7D08"></path>
                        <path d="M70.5,30.5 L46.5,30.5 C44.3,30.5 42.5,28.7 42.5,26.5 L42.5,4.5 C42.5,2.3 44.3,0.5 46.5,0.5 L70.5,0.5 C72.7,0.5 74.5,2.3 74.5,4.5 L74.5,26.5 C74.5,28.7 72.7,30.5 70.5,30.5 Z" id="Shape" fill="#E8E8E8"></path>
                        <polygon id="Shape" fill="#E8E8E8" points="42.5 11 39 15.8 42.5 20"></polygon>
                        <circle id="Oval" fill="#FFFFFF" cx="19" cy="20" r="3"></circle>
                        <path d="M23,9 C23.4,5.7 21.3,3 19,3 C16.7,3 14.6,5.7 15,9 L23,9 Z" id="Shape" fill="#FFFFFF"></path>
                    </g>
                </g>
            </g>
        </g>
    </g>
</svg>
